<svg width="250" height="50" version="1.1" xmlns="http://www.w3.org/2000/svg"><path fill="rgb(225,220,220)" stroke="rgb(225,220,220)" stroke-width="1" opacity="0.8941176470588236" d="M 26.5 8 L 27.5 10 L 26.5 8 Z "></path><path fill="rgb(225,220,220)" stroke="rgb(225,220,220)" stroke-width="1" opacity="0.8941176470588236" d="M 124.5 10 L 125 11.5 L 123.5 13 L 112.5 13 L 112.5 12 L 123.5 12 L 124.5 10 Z "></path><path fill="rgb(225,220,220)" stroke="rgb(225,220,220)" stroke-width="1" opacity="0.8941176470588236" d="M 16.5 12 L 19 12.5 L 16 13 L 15.5 15 L 15 13.5 L 16.5 12 Z "></path><path fill="rgb(225,220,220)" stroke="rgb(225,220,220)" stroke-width="1" opacity="0.8941176470588236" d="M 20.5 13 L 21.5 15 L 20.5 13 Z "></path><path fill="rgb(225,220,220)" stroke="rgb(225,220,220)" stroke-width="1" opacity="0.8941176470588236" d="M 20.5 20 L 19.5 22 L 20.5 20 Z "></path><path fill="rgb(225,220,220)" stroke="rgb(225,220,220)" stroke-width="1" opacity="0.8941176470588236" d="M 52.5 21 L 53 23.5 L 52 23.5 L 52.5 21 Z "></path><path fill="rgb(225,220,220)" stroke="rgb(225,220,220)" stroke-width="1" opacity="0.8941176470588236" d="M 75.5 21 L 76 23.5 L 75 23.5 L 75.5 21 Z "></path><path fill="rgb(225,220,220)" stroke="rgb(225,220,220)" stroke-width="1" opacity="0.8941176470588236" d="M 98.5 21 L 99 23.5 L 98 23.5 L 98.5 21 Z "></path><path fill="rgb(225,220,220)" stroke="rgb(225,220,220)" stroke-width="1" opacity="0.8941176470588236" d="M 26.5 22 L 25.5 24 L 26.5 22 Z "></path><path fill="rgb(225,220,220)" stroke="rgb(225,220,220)" stroke-width="1" opacity="0.8941176470588236" d="M 113.5 22 L 118 22.5 L 113.5 23 L 113.5 22 Z "></path><path fill="rgb(225,220,220)" stroke="rgb(225,220,220)" stroke-width="1" opacity="0.8941176470588236" d="M 32.5 24 L 33 26.5 L 32 26.5 L 32.5 24 Z "></path><path fill="rgb(225,220,220)" stroke="rgb(225,220,220)" stroke-width="1" opacity="0.8941176470588236" d="M 103.5 24 L 104 26.5 L 103 26.5 L 103.5 24 Z "></path><path fill="rgb(225,220,220)" stroke="rgb(225,220,220)" stroke-width="1" opacity="0.8941176470588236" d="M 24.5 25 L 25.5 27 L 24.5 25 Z "></path><path fill="rgb(225,220,220)" stroke="rgb(225,220,220)" stroke-width="1" opacity="0.8941176470588236" d="M 39.5 25 L 40 27.5 L 39 27.5 L 39.5 25 Z "></path><path fill="rgb(225,220,220)" stroke="rgb(225,220,220)" stroke-width="1" opacity="0.8941176470588236" d="M 14.5 27 L 18 27.5 L 14.5 28 L 14.5 27 Z "></path><path fill="rgb(225,220,220)" stroke="rgb(225,220,220)" stroke-width="1" opacity="0.8941176470588236" d="M 111.5 28 L 118 28.5 L 111.5 29 L 111.5 28 Z "></path><path fill="rgb(225,220,220)" stroke="rgb(225,220,220)" stroke-width="1" opacity="0.8941176470588236" d="M 51.5 29 L 52 31.5 L 51 31.5 L 51.5 29 Z "></path><path fill="rgb(225,220,220)" stroke="rgb(225,220,220)" stroke-width="1" opacity="0.8941176470588236" d="M 74.5 29 L 75 31.5 L 74 31.5 L 74.5 29 Z "></path><path fill="rgb(225,220,220)" stroke="rgb(225,220,220)" stroke-width="1" opacity="0.8941176470588236" d="M 97.5 29 L 98 31.5 L 97 31.5 L 97.5 29 Z "></path><path fill="rgb(225,220,220)" stroke="rgb(225,220,220)" stroke-width="1" opacity="0.8941176470588236" d="M 38.5 33 L 39 35.5 L 38 35.5 L 38.5 33 Z "></path><path fill="rgb(225,220,220)" stroke="rgb(225,220,220)" stroke-width="1" opacity="0.8941176470588236" d="M 109.5 33 L 110 35.5 L 109 35.5 L 109.5 33 Z "></path><path fill="rgb(225,220,220)" stroke="rgb(225,220,220)" stroke-width="1" opacity="0.8941176470588236" d="M 12.5 37 L 16 38.5 L 13.5 39 L 12.5 37 Z "></path><path fill="rgb(225,220,220)" stroke="rgb(225,220,220)" stroke-width="1" opacity="0.8941176470588236" d="M 50.5 37 L 51.5 38 L 61.5 38 L 63 39.5 L 62.5 42 L 62 39 L 51.5 39 L 50.5 37 Z "></path><path fill="rgb(225,220,220)" stroke="rgb(225,220,220)" stroke-width="1" opacity="0.8941176470588236" d="M 73.5 37 L 74.5 38 L 84.5 38 L 86 39.5 L 85.5 42 L 85 39 L 74.5 39 L 73.5 37 Z "></path><path fill="rgb(225,220,220)" stroke="rgb(225,220,220)" stroke-width="1" opacity="0.8941176470588236" d="M 96.5 37 L 97 39.5 L 96 39.5 L 96.5 37 Z "></path><path fill="rgb(225,220,220)" stroke="rgb(225,220,220)" stroke-width="1" opacity="0.8941176470588236" d="M 109.5 38 L 121 38.5 L 109.5 39 L 109.5 38 Z "></path><path fill="rgb(225,220,220)" stroke="rgb(225,220,220)" stroke-width="1" opacity="0.8941176470588236" d="M 25.5 39 L 24.5 41 L 25.5 39 Z "></path><path fill="rgb(225,220,220)" stroke="rgb(225,220,220)" stroke-width="1" opacity="0.8941176470588236" d="M 37.5 41 L 38 43.5 L 37 43.5 L 37.5 41 Z "></path><path fill="rgb(127,75,73)" stroke="rgb(127,75,73)" stroke-width="1" opacity="0.5372549019607843" d="M 125.5 6 L 126 8.5 L 125 8.5 L 125.5 6 Z "></path><path fill="rgb(127,75,73)" stroke="rgb(127,75,73)" stroke-width="1" opacity="0.5372549019607843" d="M 8.5 8 L 9 10.5 L 8 10.5 L 8.5 8 Z "></path><path fill="rgb(127,75,73)" stroke="rgb(127,75,73)" stroke-width="1" opacity="0.5372549019607843" d="M 46.5 8 L 47 10.5 L 46 10.5 L 46.5 8 Z "></path><path fill="rgb(127,75,73)" stroke="rgb(127,75,73)" stroke-width="1" opacity="0.5372549019607843" d="M 69.5 8 L 70 10.5 L 69 10.5 L 69.5 8 Z "></path><path fill="rgb(127,75,73)" stroke="rgb(127,75,73)" stroke-width="1" opacity="0.5372549019607843" d="M 92.5 8 L 93 10.5 L 92 10.5 L 92.5 8 Z "></path><path fill="rgb(127,75,73)" stroke="rgb(127,75,73)" stroke-width="1" opacity="0.5372549019607843" d="M 189.5 8 L 190.5 10 L 189.5 8 Z "></path><path fill="rgb(127,75,73)" stroke="rgb(127,75,73)" stroke-width="1" opacity="0.5372549019607843" d="M 166.5 11 L 167 13.5 L 166 13.5 L 166.5 11 Z "></path><path fill="rgb(127,75,73)" stroke="rgb(127,75,73)" stroke-width="1" opacity="0.5372549019607843" d="M 33.5 12 L 34 14.5 L 33 14.5 L 33.5 12 Z "></path><path fill="rgb(127,75,73)" stroke="rgb(127,75,73)" stroke-width="1" opacity="0.5372549019607843" d="M 104.5 12 L 105 14.5 L 104 14.5 L 104.5 12 Z "></path><path fill="rgb(127,75,73)" stroke="rgb(127,75,73)" stroke-width="1" opacity="0.5372549019607843" d="M 201.5 15 L 202 17.5 L 201 17.5 L 201.5 15 Z "></path><path fill="rgb(127,75,73)" stroke="rgb(127,75,73)" stroke-width="1" opacity="0.5372549019607843" d="M 177.5 22 L 178 24.5 L 177 24.5 L 177.5 22 Z "></path><path fill="rgb(127,75,73)" stroke="rgb(127,75,73)" stroke-width="1" opacity="0.5372549019607843" d="M 153.5 23 L 154.5 25 L 153.5 23 Z "></path><path fill="rgb(127,75,73)" stroke="rgb(127,75,73)" stroke-width="1" opacity="0.5372549019607843" d="M 230.5 24 L 231 26.5 L 230 26.5 L 230.5 24 Z "></path><path fill="rgb(127,75,73)" stroke="rgb(127,75,73)" stroke-width="1" opacity="0.5372549019607843" d="M 146.5 26 L 147 28.5 L 146 28.5 L 146.5 26 Z "></path><path fill="rgb(127,75,73)" stroke="rgb(127,75,73)" stroke-width="1" opacity="0.5372549019607843" d="M 210.5 26 L 211 28.5 L 210 28.5 L 210.5 26 Z "></path><path fill="rgb(127,75,73)" stroke="rgb(127,75,73)" stroke-width="1" opacity="0.5372549019607843" d="M 176.5 30 L 177 32.5 L 176 32.5 L 176.5 30 Z "></path><path fill="rgb(127,75,73)" stroke="rgb(127,75,73)" stroke-width="1" opacity="0.5372549019607843" d="M 229.5 32 L 230 35.5 L 229 35.5 L 229.5 32 Z "></path><path fill="rgb(127,75,73)" stroke="rgb(127,75,73)" stroke-width="1" opacity="0.5372549019607843" d="M 145.5 34 L 146 36.5 L 145 36.5 L 145.5 34 Z "></path><path fill="rgb(127,75,73)" stroke="rgb(127,75,73)" stroke-width="1" opacity="0.5372549019607843" d="M 209.5 34 L 210 36.5 L 209 36.5 L 209.5 34 Z "></path><path fill="rgb(127,75,73)" stroke="rgb(127,75,73)" stroke-width="1" opacity="0.5372549019607843" d="M 18.5 36 L 17.5 38 L 18.5 36 Z "></path><path fill="rgb(127,75,73)" stroke="rgb(127,75,73)" stroke-width="1" opacity="0.5372549019607843" d="M 163.5 36 L 164 38.5 L 163 38.5 L 163.5 36 Z "></path><path fill="rgb(127,75,73)" stroke="rgb(127,75,73)" stroke-width="1" opacity="0.5372549019607843" d="M 25.5 40 L 23.5 43 L 25.5 40 Z "></path><path fill="rgb(127,75,73)" stroke="rgb(127,75,73)" stroke-width="1" opacity="0.5372549019607843" d="M 187.5 40 L 185.5 43 L 187.5 40 Z "></path><path fill="rgb(127,75,73)" stroke="rgb(127,75,73)" stroke-width="1" opacity="0.5372549019607843" d="M 152.5 42 L 153 44.5 L 152 44.5 L 152.5 42 Z "></path><path fill="rgb(127,75,73)" stroke="rgb(127,75,73)" stroke-width="1" opacity="0.5372549019607843" d="M 238.5 42 L 237.5 44 L 238.5 42 Z "></path><path fill="rgb(127,75,73)" stroke="rgb(127,75,73)" stroke-width="1" opacity="0.5372549019607843" d="M 174.5 45 L 179 45.5 L 174.5 46 L 174.5 45 Z "></path><path fill="rgb(127,75,73)" stroke="rgb(127,75,73)" stroke-width="1" opacity="0.5372549019607843" d="M 227.5 45 L 233 45.5 L 227.5 46 L 227.5 45 Z "></path><path fill="rgb(176,108,107)" stroke="rgb(176,108,107)" stroke-width="1" opacity="0.7372549019607844" d="M 54.5 6 L 55 9.5 L 54 9.5 L 54.5 6 Z "></path><path fill="rgb(176,108,107)" stroke="rgb(176,108,107)" stroke-width="1" opacity="0.7372549019607844" d="M 77.5 6 L 78 9.5 L 77 9.5 L 77.5 6 Z "></path><path fill="rgb(176,108,107)" stroke="rgb(176,108,107)" stroke-width="1" opacity="0.7372549019607844" d="M 100.5 6 L 101 9.5 L 100 9.5 L 100.5 6 Z "></path><path fill="rgb(176,108,107)" stroke="rgb(176,108,107)" stroke-width="1" opacity="0.7372549019607844" d="M 41.5 11 L 42 13.5 L 41 13.5 L 41.5 11 Z "></path><path fill="rgb(176,108,107)" stroke="rgb(176,108,107)" stroke-width="1" opacity="0.7372549019607844" d="M 15.5 15 L 16 17.5 L 15 17.5 L 15.5 15 Z "></path><path fill="rgb(176,108,107)" stroke="rgb(176,108,107)" stroke-width="1" opacity="0.7372549019607844" d="M 21.5 15 L 22 17.5 L 21 17.5 L 21.5 15 Z "></path><path fill="rgb(176,108,107)" stroke="rgb(176,108,107)" stroke-width="1" opacity="0.7372549019607844" d="M 53.5 15 L 54 17.5 L 53 17.5 L 53.5 15 Z "></path><path fill="rgb(176,108,107)" stroke="rgb(176,108,107)" stroke-width="1" opacity="0.7372549019607844" d="M 76.5 15 L 77 17.5 L 76 17.5 L 76.5 15 Z "></path><path fill="rgb(176,108,107)" stroke="rgb(176,108,107)" stroke-width="1" opacity="0.7372549019607844" d="M 99.5 15 L 100 17.5 L 99 17.5 L 99.5 15 Z "></path><path fill="rgb(176,108,107)" stroke="rgb(176,108,107)" stroke-width="1" opacity="0.7372549019607844" d="M 40.5 19 L 41 21.5 L 40 21.5 L 40.5 19 Z "></path><path fill="rgb(176,108,107)" stroke="rgb(176,108,107)" stroke-width="1" opacity="0.7372549019607844" d="M 111.5 19 L 112 21.5 L 111 21.5 L 111.5 19 Z "></path><path fill="rgb(176,108,107)" stroke="rgb(176,108,107)" stroke-width="1" opacity="0.7372549019607844" d="M 27.5 30 L 28 34.5 L 27 34.5 L 27.5 30 Z "></path><path fill="rgb(176,108,107)" stroke="rgb(176,108,107)" stroke-width="1" opacity="0.7372549019607844" d="M 13.5 31 L 14 33.5 L 13 33.5 L 13.5 31 Z "></path><path fill="rgb(220,77,78)" stroke="rgb(220,77,78)" stroke-width="1" opacity="0.9450980392156862" d="M 219.5 10 L 220 12.5 L 219 12.5 L 219.5 10 Z "></path><path fill="rgb(220,77,78)" stroke="rgb(220,77,78)" stroke-width="1" opacity="0.9450980392156862" d="M 224.5 10 L 223.5 12 L 224.5 10 Z "></path><path fill="rgb(220,77,78)" stroke="rgb(220,77,78)" stroke-width="1" opacity="0.9450980392156862" d="M 195.5 14 L 201 14.5 L 195.5 15 L 195.5 14 Z "></path><path fill="rgb(220,77,78)" stroke="rgb(220,77,78)" stroke-width="1" opacity="0.9450980392156862" d="M 212.5 14 L 219 14.5 L 212 15 L 211.5 17 L 211 15.5 L 212.5 14 Z "></path><path fill="rgb(220,77,78)" stroke="rgb(220,77,78)" stroke-width="1" opacity="0.9450980392156862" d="M 232.5 14 L 231.5 16 L 232.5 14 Z "></path><path fill="rgb(220,77,78)" stroke="rgb(220,77,78)" stroke-width="1" opacity="0.9450980392156862" d="M 165.5 16 L 166 18.5 L 165 18.5 L 165.5 16 Z "></path><path fill="rgb(220,77,78)" stroke="rgb(220,77,78)" stroke-width="1" opacity="0.9450980392156862" d="M 191.5 17 L 192 19.5 L 191 19.5 L 191.5 17 Z "></path><path fill="rgb(220,77,78)" stroke="rgb(220,77,78)" stroke-width="1" opacity="0.9450980392156862" d="M 177.5 18 L 178 20.5 L 177 20.5 L 177.5 18 Z "></path><path fill="rgb(220,77,78)" stroke="rgb(220,77,78)" stroke-width="1" opacity="0.9450980392156862" d="M 244.5 19 L 245 21.5 L 244 21.5 L 244.5 19 Z "></path><path fill="rgb(220,77,78)" stroke="rgb(220,77,78)" stroke-width="1" opacity="0.9450980392156862" d="M 230.5 20 L 231 22.5 L 230 22.5 L 230.5 20 Z "></path><path fill="rgb(220,77,78)" stroke="rgb(220,77,78)" stroke-width="1" opacity="0.9450980392156862" d="M 154.5 21 L 156 21.5 L 153.5 23 L 154.5 21 Z "></path><path fill="rgb(220,77,78)" stroke="rgb(220,77,78)" stroke-width="1" opacity="0.9450980392156862" d="M 210.5 22 L 211 24.5 L 210 24.5 L 210.5 22 Z "></path><path fill="rgb(220,77,78)" stroke="rgb(220,77,78)" stroke-width="1" opacity="0.9450980392156862" d="M 164.5 24 L 165 26.5 L 164 26.5 L 164.5 24 Z "></path><path fill="rgb(220,77,78)" stroke="rgb(220,77,78)" stroke-width="1" opacity="0.9450980392156862" d="M 190.5 25 L 191 27.5 L 190 27.5 L 190.5 25 Z "></path><path fill="rgb(220,77,78)" stroke="rgb(220,77,78)" stroke-width="1" opacity="0.9450980392156862" d="M 243.5 27 L 244 29.5 L 243 29.5 L 243.5 27 Z "></path><path fill="rgb(220,77,78)" stroke="rgb(220,77,78)" stroke-width="1" opacity="0.9450980392156862" d="M 145.5 31 L 146 33.5 L 145 33.5 L 145.5 31 Z "></path><path fill="rgb(220,77,78)" stroke="rgb(220,77,78)" stroke-width="1" opacity="0.9450980392156862" d="M 163.5 32 L 164 34.5 L 163 34.5 L 163.5 32 Z "></path><path fill="rgb(220,77,78)" stroke="rgb(220,77,78)" stroke-width="1" opacity="0.9450980392156862" d="M 219.5 33 L 220 37.5 L 219 37.5 L 219.5 33 Z "></path><path fill="rgb(220,77,78)" stroke="rgb(220,77,78)" stroke-width="1" opacity="0.9450980392156862" d="M 179.5 35 L 178.5 37 L 179.5 35 Z "></path><path fill="rgb(220,77,78)" stroke="rgb(220,77,78)" stroke-width="1" opacity="0.9450980392156862" d="M 144.5 39 L 145 41.5 L 144 41.5 L 144.5 39 Z "></path><path fill="rgb(220,77,78)" stroke="rgb(220,77,78)" stroke-width="1" opacity="0.9450980392156862" d="M 162.5 40 L 163 42.5 L 162 42.5 L 162.5 40 Z "></path><path fill="rgb(220,77,78)" stroke="rgb(220,77,78)" stroke-width="1" opacity="0.9450980392156862" d="M 184.5 42 L 183.5 44 L 184.5 42 Z "></path><path fill="rgb(79,20,16)" stroke="rgb(79,20,16)" stroke-width="1" opacity="0.37254901960784315" d="M 178.5 5 L 181 5.5 L 178.5 6 L 178.5 5 Z "></path><path fill="rgb(79,20,16)" stroke="rgb(79,20,16)" stroke-width="1" opacity="0.37254901960784315" d="M 220.5 6 L 223 12.5 L 221 13.5 Q 223.3 14.8 220.5 16 Q 214.5 14.5 213 17.5 L 213 24.5 L 212 25.5 L 210 46 L 200 45.5 L 207.5 45 L 209 43.5 L 212 15 L 220 15 L 220 8.5 L 220.5 6 Z "></path><path fill="rgb(79,20,16)" stroke="rgb(79,20,16)" stroke-width="1" opacity="0.37254901960784315" d="M 42 7 Q 45.3 5.7 44 10.5 L 43 11.5 L 43 18.5 L 42 19.5 L 42 26.5 L 41 27.5 L 41 34.5 L 39 46 L 32 45.5 L 38 45 L 42 7 Z "></path><path fill="rgb(79,20,16)" stroke="rgb(79,20,16)" stroke-width="1" opacity="0.37254901960784315" d="M 55.5 7 L 56 12.5 L 55 13.5 L 53 36.5 L 51.5 38 L 51 36.5 L 52 35.5 L 54 11.5 L 55.5 7 Z "></path><path fill="rgb(79,20,16)" stroke="rgb(79,20,16)" stroke-width="1" opacity="0.37254901960784315" d="M 78.5 7 L 79 14.5 L 78 15.5 L 76 38 Q 73.3 39.1 74 36.5 L 75 35.5 L 77 11.5 L 78.5 7 Z "></path><path fill="rgb(79,20,16)" stroke="rgb(79,20,16)" stroke-width="1" opacity="0.37254901960784315" d="M 101.5 7 L 102 14.5 L 101 15.5 L 98 46 L 90 45.5 Q 95.4 46.4 97 43.5 L 100 11.5 L 101.5 7 Z "></path><path fill="rgb(79,20,16)" stroke="rgb(79,20,16)" stroke-width="1" opacity="0.37254901960784315" d="M 126.5 7 L 127 9.5 L 126 14 L 114.5 14 L 114 16.5 L 112.5 22 L 112 15.5 L 113 13 L 124.5 13 L 125 9.5 L 126.5 7 Z "></path><path fill="rgb(79,20,16)" stroke="rgb(79,20,16)" stroke-width="1" opacity="0.37254901960784315" d="M 150.5 7 L 152.5 12 L 154 11.5 Q 152.5 14.5 151 11.5 L 150.5 7 Z "></path><path fill="rgb(79,20,16)" stroke="rgb(79,20,16)" stroke-width="1" opacity="0.37254901960784315" d="M 167 7 Q 170 5.8 169 9.5 L 168 13.5 L 168 15.5 L 166 36.5 L 164 46 L 154 45.5 L 163 45 L 167 7 Z "></path><path fill="rgb(79,20,16)" stroke="rgb(79,20,16)" stroke-width="1" opacity="0.37254901960784315" d="M 173.5 7 L 172.5 9 L 173.5 7 Z "></path><path fill="rgb(79,20,16)" stroke="rgb(79,20,16)" stroke-width="1" opacity="0.37254901960784315" d="M 225.5 8 L 224.5 10 L 225.5 8 Z "></path><path fill="rgb(79,20,16)" stroke="rgb(79,20,16)" stroke-width="1" opacity="0.37254901960784315" d="M 191.5 10 L 193 14 L 195 14.5 L 193 19.5 L 191 38.5 L 185.5 45 L 179.5 46 L 179.5 45 Q 185.4 44.4 188 40.5 L 191 30.5 L 192 11.5 L 191.5 10 Z "></path><path fill="rgb(79,20,16)" stroke="rgb(79,20,16)" stroke-width="1" opacity="0.37254901960784315" d="M 244.5 10 Q 248.5 12.5 247 20.5 L 246 21.5 L 246 29.5 L 244 38.5 L 238.5 45 L 233.5 46 L 233.5 45 Q 239.1 44.6 241 40.5 L 244 32.5 L 244 25.5 L 246 15.5 L 244.5 10 Z "></path><path fill="rgb(79,20,16)" stroke="rgb(79,20,16)" stroke-width="1" opacity="0.37254901960784315" d="M 29.5 11 Q 31.9 13.1 31 18.5 L 25.5 26 L 25 24.5 L 28 21.5 L 30 14.5 L 29.5 11 Z "></path><path fill="rgb(79,20,16)" stroke="rgb(79,20,16)" stroke-width="1" opacity="0.37254901960784315" d="M 16 13 L 20 13.5 L 17 15.5 Q 18.5 23.1 15 22 L 16 13 Z "></path><path fill="rgb(79,20,16)" stroke="rgb(79,20,16)" stroke-width="1" opacity="0.37254901960784315" d="M 137.5 14 L 138 16.5 L 137 16.5 L 137.5 14 Z "></path><path fill="rgb(79,20,16)" stroke="rgb(79,20,16)" stroke-width="1" opacity="0.37254901960784315" d="M 179 15 L 182 16.5 L 181.5 19 L 180.5 16 L 177.5 36 L 176 33.5 L 179 15 Z "></path><path fill="rgb(79,20,16)" stroke="rgb(79,20,16)" stroke-width="1" opacity="0.37254901960784315" d="M 196.5 15 L 201 15.5 L 196.5 16 L 196.5 15 Z "></path><path fill="rgb(79,20,16)" stroke="rgb(79,20,16)" stroke-width="1" opacity="0.37254901960784315" d="M 232 15 L 235 15.5 L 233 17.5 L 230.5 36 L 230 27.5 L 232 15 Z "></path><path fill="rgb(79,20,16)" stroke="rgb(79,20,16)" stroke-width="1" opacity="0.37254901960784315" d="M 136.5 22 L 137 24.5 L 136 24.5 L 136.5 22 Z "></path><path fill="rgb(79,20,16)" stroke="rgb(79,20,16)" stroke-width="1" opacity="0.37254901960784315" d="M 147.5 22 L 149 24.5 L 148 25.5 L 146 46 L 136 45.5 L 143.5 45 L 145 43.5 L 147.5 22 Z "></path><path fill="rgb(79,20,16)" stroke="rgb(79,20,16)" stroke-width="1" opacity="0.37254901960784315" d="M 154.5 22 L 155 23.5 L 155 25.5 L 152.5 28 L 149 26.5 Q 151.5 28.3 154 23.5 L 154.5 22 Z "></path><path fill="rgb(79,20,16)" stroke="rgb(79,20,16)" stroke-width="1" opacity="0.37254901960784315" d="M 119.5 23 L 120 27.5 L 119 30 L 112 30 L 112 32.5 L 110.5 38 L 110 32.5 L 111 29 L 117.5 29 L 118 27.5 L 119.5 23 Z "></path><path fill="rgb(79,20,16)" stroke="rgb(79,20,16)" stroke-width="1" opacity="0.37254901960784315" d="M 14 28 L 18 28.5 L 16 29 Q 14.1 31.8 15 38 Q 12.3 39.1 13 36.5 L 14 35.5 L 14 28 Z "></path><path fill="rgb(79,20,16)" stroke="rgb(79,20,16)" stroke-width="1" opacity="0.37254901960784315" d="M 27.5 28 L 29 29.5 L 29 37.5 L 24.5 44 Q 18.4 47.9 6.5 46 L 6.5 45 L 19.5 45 L 26 40.5 Q 28.9 36.9 28 29.5 L 27.5 28 Z "></path><path fill="rgb(79,20,16)" stroke="rgb(79,20,16)" stroke-width="1" opacity="0.37254901960784315" d="M 199.5 30 L 200 32.5 L 199 32.5 L 199.5 30 Z "></path><path fill="rgb(79,20,16)" stroke="rgb(79,20,16)" stroke-width="1" opacity="0.37254901960784315" d="M 121.5 38 Q 123.8 38.8 123 42.5 L 122 46 L 103 45.5 L 121 45 L 122 39.5 L 121.5 38 Z "></path><path fill="rgb(79,20,16)" stroke="rgb(79,20,16)" stroke-width="1" opacity="0.37254901960784315" d="M 198.5 38 L 199 40.5 L 198 40.5 L 198.5 38 Z "></path><path fill="rgb(79,20,16)" stroke="rgb(79,20,16)" stroke-width="1" opacity="0.37254901960784315" d="M 63.5 39 L 64 46 L 44 45.5 L 63 45 L 63.5 39 Z "></path><path fill="rgb(79,20,16)" stroke="rgb(79,20,16)" stroke-width="1" opacity="0.37254901960784315" d="M 86.5 39 L 89 40.5 L 87 41 L 86.5 46 L 67.5 46 L 67.5 45 L 85.5 45 L 86 44.5 L 86.5 39 Z "></path><path fill="rgb(79,20,16)" stroke="rgb(79,20,16)" stroke-width="1" opacity="0.37254901960784315" d="M 220.5 41 L 222.5 44 L 220.5 41 Z "></path><path fill="rgb(234,84,85)" stroke="rgb(234,84,85)" stroke-width="1" opacity="1" d="M 140.5 6 Q 147.2 4.3 149 7.5 L 151 14 L 154 12.5 L 158.5 6 Q 165.3 4.3 167 7.5 L 166 8.5 L 166 15.5 L 165 16.5 L 165 23.5 L 164 24.5 L 162 45 L 153 45 L 153 39.5 L 154 38.5 L 154 30.5 L 156 21.5 L 154.5 21 L 150.5 27 L 147.5 21 L 146 23.5 L 144 43.5 L 142.5 45 L 135 45 L 135 37.5 L 136 36.5 L 139 7.5 L 140.5 6 Z "></path><path fill="rgb(234,84,85)" stroke="rgb(234,84,85)" stroke-width="1" opacity="1" d="M 178.5 6 Q 187.2 4.8 190 9.5 L 192 16.5 L 191 17.5 L 189 36.5 L 185.5 42 Q 182 46 173.5 45 L 168 41.5 Q 165.2 38.8 166 32.5 L 167 31.5 L 169 13.5 L 173.5 8 L 178.5 6 Z M 180 14 L 177 19 L 177 27 L 176 28 L 176 37 L 179 37 L 180 36 L 181 24 L 182 23 L 182 15 L 180 14 Z "></path><path fill="rgb(234,84,85)" stroke="rgb(234,84,85)" stroke-width="1" opacity="1" d="M 196 6 L 219.5 6 L 220 9.5 L 219 14 L 212.5 14 L 211 15.5 L 209 38.5 L 206.5 45 L 199 45 L 199 37.5 L 200 36.5 L 202 15.5 Q 200.4 12.5 195 14 L 196 6 Z "></path><path fill="rgb(234,84,85)" stroke="rgb(234,84,85)" stroke-width="1" opacity="1" d="M 231.5 6 Q 241.2 4.8 244 10.5 L 245 18.5 L 244 19.5 L 243 34.5 Q 241.8 40.3 237.5 43 Q 233.9 45.9 226.5 45 L 221 41.5 L 220 39.5 L 220 26.5 L 221 25.5 L 222 14.5 L 225 9 L 231.5 6 Z M 233 14 L 230 21 L 229 36 L 232 37 L 234 33 Q 232 26 235 25 L 235 15 L 233 14 Z "></path><path fill="rgb(14,5,5)" stroke="rgb(14,5,5)" stroke-width="1" opacity="0.07058823529411765" d="M 10.5 5 L 19 5.5 L 10.5 6 L 10.5 5 Z "></path><path fill="rgb(14,5,5)" stroke="rgb(14,5,5)" stroke-width="1" opacity="0.07058823529411765" d="M 36.5 5 L 41 5.5 L 36.5 6 L 36.5 5 Z "></path><path fill="rgb(14,5,5)" stroke="rgb(14,5,5)" stroke-width="1" opacity="0.07058823529411765" d="M 48.5 5 L 54 5.5 L 48.5 6 L 48.5 5 Z "></path><path fill="rgb(14,5,5)" stroke="rgb(14,5,5)" stroke-width="1" opacity="0.07058823529411765" d="M 71.5 5 L 77 5.5 L 71.5 6 L 71.5 5 Z "></path><path fill="rgb(14,5,5)" stroke="rgb(14,5,5)" stroke-width="1" opacity="0.07058823529411765" d="M 94.5 5 L 100 5.5 L 94.5 6 L 94.5 5 Z "></path><path fill="rgb(14,5,5)" stroke="rgb(14,5,5)" stroke-width="1" opacity="0.07058823529411765" d="M 107.5 5 L 124 5.5 L 107.5 6 L 107.5 5 Z "></path><path fill="rgb(14,5,5)" stroke="rgb(14,5,5)" stroke-width="1" opacity="0.07058823529411765" d="M 79.5 7 L 80 9.5 L 79 9.5 L 79.5 7 Z "></path><path fill="rgb(14,5,5)" stroke="rgb(14,5,5)" stroke-width="1" opacity="0.07058823529411765" d="M 102.5 7 L 103 9.5 L 102 9.5 L 102.5 7 Z "></path><path fill="rgb(14,5,5)" stroke="rgb(14,5,5)" stroke-width="1" opacity="0.07058823529411765" d="M 27.5 8 L 29.5 11 L 27.5 8 Z "></path><path fill="rgb(14,5,5)" stroke="rgb(14,5,5)" stroke-width="1" opacity="0.07058823529411765" d="M 190.5 8 L 191.5 10 L 190.5 8 Z "></path><path fill="rgb(14,5,5)" stroke="rgb(14,5,5)" stroke-width="1" opacity="0.07058823529411765" d="M 243.5 8 L 245.5 11 L 243.5 8 Z "></path><path fill="rgb(14,5,5)" stroke="rgb(14,5,5)" stroke-width="1" opacity="0.07058823529411765" d="M 126.5 10 L 127 12.5 L 126 12.5 L 126.5 10 Z "></path><path fill="rgb(14,5,5)" stroke="rgb(14,5,5)" stroke-width="1" opacity="0.07058823529411765" d="M 168.5 10 Q 171.3 11.3 169 12.5 L 168.5 14 L 168.5 10 Z "></path><path fill="rgb(14,5,5)" stroke="rgb(14,5,5)" stroke-width="1" opacity="0.07058823529411765" d="M 43.5 11 L 44 13.5 L 43 13.5 L 43.5 11 Z "></path><path fill="rgb(14,5,5)" stroke="rgb(14,5,5)" stroke-width="1" opacity="0.07058823529411765" d="M 55.5 13 L 56 15.5 L 55 15.5 L 55.5 13 Z "></path><path fill="rgb(14,5,5)" stroke="rgb(14,5,5)" stroke-width="1" opacity="0.07058823529411765" d="M 17.5 15 L 18 17.5 L 17 17.5 L 17.5 15 Z "></path><path fill="rgb(14,5,5)" stroke="rgb(14,5,5)" stroke-width="1" opacity="0.07058823529411765" d="M 78.5 15 L 79 17.5 L 78 17.5 L 78.5 15 Z "></path><path fill="rgb(14,5,5)" stroke="rgb(14,5,5)" stroke-width="1" opacity="0.07058823529411765" d="M 101.5 15 L 102 17.5 L 101 17.5 L 101.5 15 Z "></path><path fill="rgb(14,5,5)" stroke="rgb(14,5,5)" stroke-width="1" opacity="0.07058823529411765" d="M 113.5 17 L 114 19.5 L 113 19.5 L 113.5 17 Z "></path><path fill="rgb(14,5,5)" stroke="rgb(14,5,5)" stroke-width="1" opacity="0.07058823529411765" d="M 213.5 17 L 214 19.5 L 213 19.5 L 213.5 17 Z "></path><path fill="rgb(14,5,5)" stroke="rgb(14,5,5)" stroke-width="1" opacity="0.07058823529411765" d="M 233.5 17 L 234.5 19 L 233.5 17 Z "></path><path fill="rgb(14,5,5)" stroke="rgb(14,5,5)" stroke-width="1" opacity="0.07058823529411765" d="M 42.5 19 L 43 21.5 L 42 21.5 L 42.5 19 Z "></path><path fill="rgb(14,5,5)" stroke="rgb(14,5,5)" stroke-width="1" opacity="0.07058823529411765" d="M 193.5 19 L 194 22.5 L 193 22.5 L 193.5 19 Z "></path><path fill="rgb(14,5,5)" stroke="rgb(14,5,5)" stroke-width="1" opacity="0.07058823529411765" d="M 54.5 21 L 55 23.5 L 54 23.5 L 54.5 21 Z "></path><path fill="rgb(14,5,5)" stroke="rgb(14,5,5)" stroke-width="1" opacity="0.07058823529411765" d="M 179.5 21 L 181 24.5 L 179 23.5 L 179.5 21 Z "></path><path fill="rgb(14,5,5)" stroke="rgb(14,5,5)" stroke-width="1" opacity="0.07058823529411765" d="M 246.5 21 L 247 24.5 L 246 24.5 L 246.5 21 Z "></path><path fill="rgb(14,5,5)" stroke="rgb(14,5,5)" stroke-width="1" opacity="0.07058823529411765" d="M 29.5 22 L 27 25.5 L 29 28.5 L 26 26.5 L 29.5 22 Z "></path><path fill="rgb(14,5,5)" stroke="rgb(14,5,5)" stroke-width="1" opacity="0.07058823529411765" d="M 77.5 23 L 78 25.5 L 77 25.5 L 77.5 23 Z "></path><path fill="rgb(14,5,5)" stroke="rgb(14,5,5)" stroke-width="1" opacity="0.07058823529411765" d="M 100.5 23 L 101 25.5 L 100 25.5 L 100.5 23 Z "></path><path fill="rgb(14,5,5)" stroke="rgb(14,5,5)" stroke-width="1" opacity="0.07058823529411765" d="M 232.5 23 L 234 26.5 L 232 25.5 L 232.5 23 Z "></path><path fill="rgb(14,5,5)" stroke="rgb(14,5,5)" stroke-width="1" opacity="0.07058823529411765" d="M 148.5 25 L 149 27.5 L 148 27.5 L 148.5 25 Z "></path><path fill="rgb(14,5,5)" stroke="rgb(14,5,5)" stroke-width="1" opacity="0.07058823529411765" d="M 212.5 25 L 213 27.5 L 212 27.5 L 212.5 25 Z "></path><path fill="rgb(14,5,5)" stroke="rgb(14,5,5)" stroke-width="1" opacity="0.07058823529411765" d="M 41.5 27 L 42 29.5 L 41 29.5 L 41.5 27 Z "></path><path fill="rgb(14,5,5)" stroke="rgb(14,5,5)" stroke-width="1" opacity="0.07058823529411765" d="M 151.5 27 L 152.5 29 L 151.5 27 Z "></path><path fill="rgb(14,5,5)" stroke="rgb(14,5,5)" stroke-width="1" opacity="0.07058823529411765" d="M 192.5 27 L 193 30.5 L 192 30.5 L 192.5 27 Z "></path><path fill="rgb(14,5,5)" stroke="rgb(14,5,5)" stroke-width="1" opacity="0.07058823529411765" d="M 53.5 29 L 54 31.5 L 53 31.5 L 53.5 29 Z "></path><path fill="rgb(14,5,5)" stroke="rgb(14,5,5)" stroke-width="1" opacity="0.07058823529411765" d="M 178.5 29 L 180 32.5 L 178 31.5 L 178.5 29 Z "></path><path fill="rgb(14,5,5)" stroke="rgb(14,5,5)" stroke-width="1" opacity="0.07058823529411765" d="M 245.5 30 L 246 32.5 L 245 32.5 L 245.5 30 Z "></path><path fill="rgb(14,5,5)" stroke="rgb(14,5,5)" stroke-width="1" opacity="0.07058823529411765" d="M 15.5 31 L 16 33.5 L 15 33.5 L 15.5 31 Z "></path><path fill="rgb(14,5,5)" stroke="rgb(14,5,5)" stroke-width="1" opacity="0.07058823529411765" d="M 76.5 31 L 77 33.5 L 76 33.5 L 76.5 31 Z "></path><path fill="rgb(14,5,5)" stroke="rgb(14,5,5)" stroke-width="1" opacity="0.07058823529411765" d="M 99.5 31 L 100 33.5 L 99 33.5 L 99.5 31 Z "></path><path fill="rgb(14,5,5)" stroke="rgb(14,5,5)" stroke-width="1" opacity="0.07058823529411765" d="M 231.5 31 L 233 34.5 L 231 33.5 L 231.5 31 Z "></path><path fill="rgb(14,5,5)" stroke="rgb(14,5,5)" stroke-width="1" opacity="0.07058823529411765" d="M 29.5 32 L 31 35.5 L 29 34.5 L 29.5 32 Z "></path><path fill="rgb(14,5,5)" stroke="rgb(14,5,5)" stroke-width="1" opacity="0.07058823529411765" d="M 111.5 33 L 112 35.5 L 111 35.5 L 111.5 33 Z "></path><path fill="rgb(14,5,5)" stroke="rgb(14,5,5)" stroke-width="1" opacity="0.07058823529411765" d="M 147.5 33 L 148 36.5 L 147 36.5 L 147.5 33 Z "></path><path fill="rgb(14,5,5)" stroke="rgb(14,5,5)" stroke-width="1" opacity="0.07058823529411765" d="M 211.5 33 L 212 35.5 L 211 35.5 L 211.5 33 Z "></path><path fill="rgb(14,5,5)" stroke="rgb(14,5,5)" stroke-width="1" opacity="0.07058823529411765" d="M 40.5 35 L 41 38.5 L 40 38.5 L 40.5 35 Z "></path><path fill="rgb(14,5,5)" stroke="rgb(14,5,5)" stroke-width="1" opacity="0.07058823529411765" d="M 64.5 39 L 65 42.5 L 64 42.5 L 64.5 39 Z "></path><path fill="rgb(14,5,5)" stroke="rgb(14,5,5)" stroke-width="1" opacity="0.07058823529411765" d="M 98.5 39 L 99 42.5 L 98 42.5 L 98.5 39 Z "></path><path fill="rgb(14,5,5)" stroke="rgb(14,5,5)" stroke-width="1" opacity="0.07058823529411765" d="M 87.5 41 L 88 44.5 L 87 44.5 L 87.5 41 Z "></path><path fill="rgb(14,5,5)" stroke="rgb(14,5,5)" stroke-width="1" opacity="0.07058823529411765" d="M 146.5 41 L 147 44.5 L 146 44.5 L 146.5 41 Z "></path><path fill="rgb(14,5,5)" stroke="rgb(14,5,5)" stroke-width="1" opacity="0.07058823529411765" d="M 210.5 41 L 211 43.5 L 210 43.5 L 210.5 41 Z "></path><path fill="rgb(14,5,5)" stroke="rgb(14,5,5)" stroke-width="1" opacity="0.07058823529411765" d="M 242.5 41 L 240.5 44 L 242.5 41 Z "></path><path fill="rgb(14,5,5)" stroke="rgb(14,5,5)" stroke-width="1" opacity="0.07058823529411765" d="M 188.5 42 L 187.5 44 L 188.5 42 Z "></path><path fill="rgb(14,5,5)" stroke="rgb(14,5,5)" stroke-width="1" opacity="0.07058823529411765" d="M 39.5 43 L 40 45.5 L 39 45.5 L 39.5 43 Z "></path><path fill="rgb(14,5,5)" stroke="rgb(14,5,5)" stroke-width="1" opacity="0.07058823529411765" d="M 122.5 43 L 123 45.5 L 122 45.5 L 122.5 43 Z "></path><path fill="rgb(14,5,5)" stroke="rgb(14,5,5)" stroke-width="1" opacity="0.07058823529411765" d="M 175.5 46 L 181 46.5 L 175.5 47 L 175.5 46 Z "></path><path fill="rgb(14,5,5)" stroke="rgb(14,5,5)" stroke-width="1" opacity="0.07058823529411765" d="M 228.5 46 L 235 46.5 L 228.5 47 L 228.5 46 Z "></path><path fill="rgb(255,255,255)" stroke="rgb(255,255,255)" stroke-width="1" opacity="1" d="M 10.5 6 L 23.5 7 L 27 9.5 L 29 15.5 L 24 25.5 Q 28.3 27.7 27 35.5 L 21.5 43 Q 14.9 46.1 5 45 L 8 15.5 L 9 14.5 L 9 7.5 L 10.5 6 Z M 15 12 L 15 20 L 14 21 L 16 23 L 20 22 Q 23 20 22 15 Q 21 11 15 12 Z M 15 27 L 13 29 Q 14 36 12 39 L 19 38 Q 21 35 20 28 L 15 27 Z "></path><path fill="rgb(255,255,255)" stroke="rgb(255,255,255)" stroke-width="1" opacity="1" d="M 36.5 6 Q 41 5 42 7.5 L 41 8.5 L 38 39.5 L 35.5 45 L 31 45 L 31 36.5 L 32 35.5 L 34 11.5 L 36.5 6 Z "></path><path fill="rgb(255,255,255)" stroke="rgb(255,255,255)" stroke-width="1" opacity="1" d="M 48.5 6 Q 56.8 3.3 54 11.5 L 53 12.5 L 53 19.5 L 52 20.5 L 52 27.5 L 50 39 L 62 39 L 62 43.5 L 60.5 45 L 43 45 L 46 15.5 L 47 14.5 L 47 7.5 L 48.5 6 Z "></path><path fill="rgb(255,255,255)" stroke="rgb(255,255,255)" stroke-width="1" opacity="1" d="M 71.5 6 Q 79.8 3.3 77 11.5 L 76 12.5 L 76 19.5 L 75 20.5 L 75 27.5 L 73 39 L 85 39 L 85 43.5 L 83.5 45 L 66 45 L 69 15.5 L 70 14.5 L 70 7.5 L 71.5 6 Z "></path><path fill="rgb(255,255,255)" stroke="rgb(255,255,255)" stroke-width="1" opacity="1" d="M 94.5 6 Q 102.8 3.3 100 11.5 L 99 12.5 L 96 43.5 L 94.5 45 Q 86.7 47.7 89 40.5 L 90 39.5 L 93 7.5 L 94.5 6 Z "></path><path fill="rgb(255,255,255)" stroke="rgb(255,255,255)" stroke-width="1" opacity="1" d="M 107.5 6 L 124.5 6 L 125 8.5 L 124 12 L 112.5 12 L 112 15.5 L 111 16.5 L 111 23 L 118 23 L 118 26.5 L 116.5 28 L 110 28 L 109 39 L 120.5 39 L 121 41.5 L 120 45 L 102 45 L 102 36.5 L 103 35.5 L 105 11.5 L 107.5 6 Z "></path><path fill="rgb(0,0,0)" stroke="rgb(0,0,0)" stroke-width="1" opacity="0" d="M 0 0 L 249.5 0 L 250 0.5 L 250 50 L 0.5 50 L 0 49.5 L 0 0 Z M 11 5 L 8 8 L 8 15 L 7 16 L 4 45 L 7 46 L 22 46 L 24 45 Q 29 42 30 35 L 29 29 L 27 27 L 31 20 L 30 11 L 24 6 L 11 5 Z M 37 5 L 34 6 L 32 27 L 31 28 L 31 35 L 30 36 L 30 44 L 29 45 Q 32 48 40 46 L 44 8 Q 42 4 37 5 Z M 49 5 L 46 8 L 46 15 L 45 16 L 42 45 L 45 46 L 64 46 L 65 43 L 65 45 L 68 46 L 87 46 L 88 45 L 98 46 L 103 7 L 100 5 L 95 5 L 92 8 L 89 40 L 86 38 L 76 38 L 80 7 L 77 5 L 72 5 L 69 8 L 66 40 L 63 38 L 53 38 L 55 17 L 56 16 L 56 8 Q 55 4 49 5 Z M 108 5 L 105 6 L 103 27 L 102 28 L 102 35 L 101 36 L 101 44 L 100 45 L 103 46 L 123 46 Q 124 46 123 40 L 122 38 L 111 38 L 112 36 L 112 30 L 120 30 L 120 24 Q 118 20 113 22 L 114 20 L 114 14 L 126 14 Q 128 13 127 8 L 124 5 L 108 5 Z M 179 5 Q 172 6 170 11 L 169 8 L 168 6 L 156 6 L 154 11 Q 151 12 152 9 L 150 6 L 138 6 L 134 45 Q 137 47 146 46 L 147 45 L 148 29 L 150 27 L 153 29 L 153 28 L 154 28 L 152 45 Q 155 47 164 46 L 165 45 L 166 38 L 166 41 Q 169 45 176 47 L 181 47 L 188 44 L 192 37 L 194 15 L 201 16 L 198 45 Q 202 47 210 46 L 211 44 L 213 21 L 214 20 L 214 16 L 221 16 L 219 28 L 219 40 L 220 42 L 229 47 Q 237 48 241 44 L 245 38 L 246 26 L 247 25 L 247 13 L 246 11 L 238 5 Q 230 4 227 7 L 223 12 L 222 8 L 221 6 L 195 6 L 194 13 L 192 10 Q 189 4 179 5 Z "></path><path fill="rgb(0,0,0)" stroke="rgb(0,0,0)" stroke-width="1" opacity="0" d="M 18 14 L 21 15.5 L 20 21 L 17.5 22 L 17 18.5 L 18 14 Z "></path><path fill="rgb(0,0,0)" stroke="rgb(0,0,0)" stroke-width="1" opacity="0" d="M 234.5 16 L 235 17.5 L 234 18.5 L 233 33.5 L 231.5 36 L 231 34.5 L 232 33.5 L 233 18.5 L 234.5 16 Z "></path><path fill="rgb(0,0,0)" stroke="rgb(0,0,0)" stroke-width="1" opacity="0" d="M 180.5 17 L 181 23.5 L 178.5 36 L 178 32.5 L 179 31.5 L 180.5 17 Z "></path><path fill="rgb(0,0,0)" stroke="rgb(0,0,0)" stroke-width="1" opacity="0" d="M 16 29 L 19 29 L 19 35.5 L 15 38 L 16 29 Z "></path></svg>