<svg xmlns="http://www.w3.org/2000/svg" xmlns:xlink="http://www.w3.org/1999/xlink" width="1080" zoomAndPan="magnify" viewBox="0 0 810 374.999991" height="500" preserveAspectRatio="xMidYMid meet" version="1.0"><defs><g/></defs><rect x="-81" width="972" fill="#ffffff" y="-37.499999" height="449.999989" fill-opacity="1"/><rect x="-81" width="972" fill="#ffffff" y="-37.499999" height="449.999989" fill-opacity="1"/><g fill="#d32f23" fill-opacity="0.4196"><g transform="translate(78.06377, 249.047606)"><g><path d="M 63.84375 -28.78125 C 62.875 -19.53125 59.441406 -12.421875 53.546875 -7.453125 C 47.648438 -2.484375 40.421875 0 31.859375 0 L 5.109375 0 C 4.628906 0 4.238281 -0.164062 3.9375 -0.5 C 3.644531 -0.84375 3.550781 -1.257812 3.65625 -1.75 L 15.78125 -100.515625 C 15.875 -101.003906 16.09375 -101.421875 16.4375 -101.765625 C 16.78125 -102.109375 17.191406 -102.28125 17.671875 -102.28125 L 41.34375 -102.28125 C 49.914062 -102.28125 56.5625 -100.351562 61.28125 -96.5 C 66.007812 -92.65625 68.375 -86.9375 68.375 -79.34375 C 68.375 -78.363281 68.28125 -76.707031 68.09375 -74.375 C 66.914062 -64.820312 62.820312 -57.804688 55.8125 -53.328125 C 55.425781 -53.035156 55.378906 -52.742188 55.671875 -52.453125 C 61.316406 -47.972656 64.140625 -41.59375 64.140625 -33.3125 C 64.140625 -32.4375 64.039062 -30.925781 63.84375 -28.78125 Z M 34.484375 -84.59375 C 33.992188 -84.59375 33.75 -84.347656 33.75 -83.859375 L 30.828125 -60.921875 C 30.828125 -60.441406 31.019531 -60.203125 31.40625 -60.203125 L 36.53125 -60.203125 C 40.226562 -60.203125 43.125 -61.515625 45.21875 -64.140625 C 47.3125 -66.773438 48.359375 -70.425781 48.359375 -75.09375 C 48.359375 -78.21875 47.601562 -80.582031 46.09375 -82.1875 C 44.582031 -83.789062 42.414062 -84.59375 39.59375 -84.59375 Z M 32.578125 -17.828125 C 35.703125 -17.828125 38.285156 -18.992188 40.328125 -21.328125 C 42.367188 -23.671875 43.679688 -26.984375 44.265625 -31.265625 C 44.367188 -31.953125 44.421875 -32.972656 44.421875 -34.328125 C 44.421875 -37.742188 43.6875 -40.425781 42.21875 -42.375 C 40.757812 -44.320312 38.71875 -45.296875 36.09375 -45.296875 L 29.65625 -45.296875 C 29.269531 -45.296875 28.976562 -45.050781 28.78125 -44.5625 L 25.71875 -18.5625 C 25.519531 -18.070312 25.710938 -17.828125 26.296875 -17.828125 Z M 32.578125 -17.828125 "/></g></g></g><g fill="#d32f23" fill-opacity="0.4196"><g transform="translate(144.685533, 249.047606)"><g><path d="M 5.109375 0 C 4.628906 0 4.238281 -0.164062 3.9375 -0.5 C 3.644531 -0.84375 3.550781 -1.257812 3.65625 -1.75 L 15.78125 -100.515625 C 15.875 -101.003906 16.09375 -101.421875 16.4375 -101.765625 C 16.78125 -102.109375 17.191406 -102.28125 17.671875 -102.28125 L 34.1875 -102.28125 C 35.257812 -102.28125 35.796875 -101.691406 35.796875 -100.515625 L 23.671875 -1.75 C 23.578125 -1.257812 23.332031 -0.84375 22.9375 -0.5 C 22.550781 -0.164062 22.113281 0 21.625 0 Z M 5.109375 0 "/></g></g></g><g fill="#d32f23" fill-opacity="0.4196"><g transform="translate(177.265915, 249.047606)"><g><path d="M 5.109375 0 C 4.628906 0 4.238281 -0.164062 3.9375 -0.5 C 3.644531 -0.84375 3.550781 -1.257812 3.65625 -1.75 L 15.78125 -100.515625 C 15.875 -101.003906 16.09375 -101.421875 16.4375 -101.765625 C 16.78125 -102.109375 17.191406 -102.28125 17.671875 -102.28125 L 34.1875 -102.28125 C 35.257812 -102.28125 35.796875 -101.691406 35.796875 -100.515625 L 25.71875 -18.40625 C 25.519531 -17.914062 25.710938 -17.671875 26.296875 -17.671875 L 55.953125 -17.671875 C 57.023438 -17.671875 57.5625 -17.085938 57.5625 -15.921875 L 55.8125 -1.75 C 55.71875 -1.257812 55.5 -0.84375 55.15625 -0.5 C 54.8125 -0.164062 54.398438 0 53.921875 0 Z M 5.109375 0 "/></g></g></g><g fill="#d32f23" fill-opacity="0.4196"><g transform="translate(237.60536, 249.047606)"><g><path d="M 5.109375 0 C 4.628906 0 4.238281 -0.164062 3.9375 -0.5 C 3.644531 -0.84375 3.550781 -1.257812 3.65625 -1.75 L 15.78125 -100.515625 C 15.875 -101.003906 16.09375 -101.421875 16.4375 -101.765625 C 16.78125 -102.109375 17.191406 -102.28125 17.671875 -102.28125 L 34.1875 -102.28125 C 35.257812 -102.28125 35.796875 -101.691406 35.796875 -100.515625 L 25.71875 -18.40625 C 25.519531 -17.914062 25.710938 -17.671875 26.296875 -17.671875 L 55.953125 -17.671875 C 57.023438 -17.671875 57.5625 -17.085938 57.5625 -15.921875 L 55.8125 -1.75 C 55.71875 -1.257812 55.5 -0.84375 55.15625 -0.5 C 54.8125 -0.164062 54.398438 0 53.921875 0 Z M 5.109375 0 "/></g></g></g><g fill="#d32f23" fill-opacity="0.4196"><g transform="translate(297.944805, 249.047606)"><g><path d="M 5.109375 0 C 4.628906 0 4.238281 -0.164062 3.9375 -0.5 C 3.644531 -0.84375 3.550781 -1.257812 3.65625 -1.75 L 15.78125 -100.515625 C 15.875 -101.003906 16.09375 -101.421875 16.4375 -101.765625 C 16.78125 -102.109375 17.191406 -102.28125 17.671875 -102.28125 L 34.1875 -102.28125 C 35.257812 -102.28125 35.796875 -101.691406 35.796875 -100.515625 L 23.671875 -1.75 C 23.578125 -1.257812 23.332031 -0.84375 22.9375 -0.5 C 22.550781 -0.164062 22.113281 0 21.625 0 Z M 5.109375 0 "/></g></g></g><g fill="#d32f23" fill-opacity="0.4196"><g transform="translate(330.525187, 249.047606)"><g><path d="M 66.046875 -86.34375 C 65.941406 -85.863281 65.71875 -85.453125 65.375 -85.109375 C 65.039062 -84.765625 64.628906 -84.59375 64.140625 -84.59375 L 34.484375 -84.59375 C 33.992188 -84.59375 33.75 -84.347656 33.75 -83.859375 L 30.828125 -60.78125 C 30.828125 -60.289062 31.019531 -60.046875 31.40625 -60.046875 L 48.515625 -60.046875 C 48.992188 -60.046875 49.378906 -59.875 49.671875 -59.53125 C 49.960938 -59.195312 50.0625 -58.785156 49.96875 -58.296875 L 48.21875 -44.125 C 48.113281 -43.632812 47.890625 -43.21875 47.546875 -42.875 C 47.210938 -42.539062 46.800781 -42.375 46.3125 -42.375 L 29.375 -42.375 C 28.78125 -42.375 28.484375 -42.128906 28.484375 -41.640625 L 25.71875 -18.40625 C 25.519531 -17.914062 25.710938 -17.671875 26.296875 -17.671875 L 55.8125 -17.671875 C 56.300781 -17.671875 56.710938 -17.5 57.046875 -17.15625 C 57.390625 -16.820312 57.515625 -16.410156 57.421875 -15.921875 L 55.671875 -1.75 C 55.566406 -1.257812 55.34375 -0.84375 55 -0.5 C 54.664062 -0.164062 54.253906 0 53.765625 0 L 5.109375 0 C 4.628906 0 4.238281 -0.164062 3.9375 -0.5 C 3.644531 -0.84375 3.550781 -1.257812 3.65625 -1.75 L 15.78125 -100.515625 C 15.875 -101.003906 16.09375 -101.421875 16.4375 -101.765625 C 16.78125 -102.109375 17.191406 -102.28125 17.671875 -102.28125 L 66.328125 -102.28125 C 66.816406 -102.28125 67.207031 -102.109375 67.5 -101.765625 C 67.789062 -101.421875 67.890625 -101.003906 67.796875 -100.515625 Z M 66.046875 -86.34375 "/></g></g></g><g fill="#d32f23" fill-opacity="0.4196"><g transform="translate(392.617836, 249.047606)"><g/></g></g><g fill="#ffffff" fill-opacity="1"><g transform="translate(73.720603, 245.137001)"><g><path d="M 63.84375 -28.78125 C 62.875 -19.53125 59.441406 -12.421875 53.546875 -7.453125 C 47.648438 -2.484375 40.421875 0 31.859375 0 L 5.109375 0 C 4.628906 0 4.238281 -0.164062 3.9375 -0.5 C 3.644531 -0.84375 3.550781 -1.257812 3.65625 -1.75 L 15.78125 -100.515625 C 15.875 -101.003906 16.09375 -101.421875 16.4375 -101.765625 C 16.78125 -102.109375 17.191406 -102.28125 17.671875 -102.28125 L 41.34375 -102.28125 C 49.914062 -102.28125 56.5625 -100.351562 61.28125 -96.5 C 66.007812 -92.65625 68.375 -86.9375 68.375 -79.34375 C 68.375 -78.363281 68.28125 -76.707031 68.09375 -74.375 C 66.914062 -64.820312 62.820312 -57.804688 55.8125 -53.328125 C 55.425781 -53.035156 55.378906 -52.742188 55.671875 -52.453125 C 61.316406 -47.972656 64.140625 -41.59375 64.140625 -33.3125 C 64.140625 -32.4375 64.039062 -30.925781 63.84375 -28.78125 Z M 34.484375 -84.59375 C 33.992188 -84.59375 33.75 -84.347656 33.75 -83.859375 L 30.828125 -60.921875 C 30.828125 -60.441406 31.019531 -60.203125 31.40625 -60.203125 L 36.53125 -60.203125 C 40.226562 -60.203125 43.125 -61.515625 45.21875 -64.140625 C 47.3125 -66.773438 48.359375 -70.425781 48.359375 -75.09375 C 48.359375 -78.21875 47.601562 -80.582031 46.09375 -82.1875 C 44.582031 -83.789062 42.414062 -84.59375 39.59375 -84.59375 Z M 32.578125 -17.828125 C 35.703125 -17.828125 38.285156 -18.992188 40.328125 -21.328125 C 42.367188 -23.671875 43.679688 -26.984375 44.265625 -31.265625 C 44.367188 -31.953125 44.421875 -32.972656 44.421875 -34.328125 C 44.421875 -37.742188 43.6875 -40.425781 42.21875 -42.375 C 40.757812 -44.320312 38.71875 -45.296875 36.09375 -45.296875 L 29.65625 -45.296875 C 29.269531 -45.296875 28.976562 -45.050781 28.78125 -44.5625 L 25.71875 -18.5625 C 25.519531 -18.070312 25.710938 -17.828125 26.296875 -17.828125 Z M 32.578125 -17.828125 "/></g></g></g><g fill="#ffffff" fill-opacity="1"><g transform="translate(140.342366, 245.137001)"><g><path d="M 5.109375 0 C 4.628906 0 4.238281 -0.164062 3.9375 -0.5 C 3.644531 -0.84375 3.550781 -1.257812 3.65625 -1.75 L 15.78125 -100.515625 C 15.875 -101.003906 16.09375 -101.421875 16.4375 -101.765625 C 16.78125 -102.109375 17.191406 -102.28125 17.671875 -102.28125 L 34.1875 -102.28125 C 35.257812 -102.28125 35.796875 -101.691406 35.796875 -100.515625 L 23.671875 -1.75 C 23.578125 -1.257812 23.332031 -0.84375 22.9375 -0.5 C 22.550781 -0.164062 22.113281 0 21.625 0 Z M 5.109375 0 "/></g></g></g><g fill="#ffffff" fill-opacity="1"><g transform="translate(172.922748, 245.137001)"><g><path d="M 5.109375 0 C 4.628906 0 4.238281 -0.164062 3.9375 -0.5 C 3.644531 -0.84375 3.550781 -1.257812 3.65625 -1.75 L 15.78125 -100.515625 C 15.875 -101.003906 16.09375 -101.421875 16.4375 -101.765625 C 16.78125 -102.109375 17.191406 -102.28125 17.671875 -102.28125 L 34.1875 -102.28125 C 35.257812 -102.28125 35.796875 -101.691406 35.796875 -100.515625 L 25.71875 -18.40625 C 25.519531 -17.914062 25.710938 -17.671875 26.296875 -17.671875 L 55.953125 -17.671875 C 57.023438 -17.671875 57.5625 -17.085938 57.5625 -15.921875 L 55.8125 -1.75 C 55.71875 -1.257812 55.5 -0.84375 55.15625 -0.5 C 54.8125 -0.164062 54.398438 0 53.921875 0 Z M 5.109375 0 "/></g></g></g><g fill="#ffffff" fill-opacity="1"><g transform="translate(233.262193, 245.137001)"><g><path d="M 5.109375 0 C 4.628906 0 4.238281 -0.164062 3.9375 -0.5 C 3.644531 -0.84375 3.550781 -1.257812 3.65625 -1.75 L 15.78125 -100.515625 C 15.875 -101.003906 16.09375 -101.421875 16.4375 -101.765625 C 16.78125 -102.109375 17.191406 -102.28125 17.671875 -102.28125 L 34.1875 -102.28125 C 35.257812 -102.28125 35.796875 -101.691406 35.796875 -100.515625 L 25.71875 -18.40625 C 25.519531 -17.914062 25.710938 -17.671875 26.296875 -17.671875 L 55.953125 -17.671875 C 57.023438 -17.671875 57.5625 -17.085938 57.5625 -15.921875 L 55.8125 -1.75 C 55.71875 -1.257812 55.5 -0.84375 55.15625 -0.5 C 54.8125 -0.164062 54.398438 0 53.921875 0 Z M 5.109375 0 "/></g></g></g><g fill="#ffffff" fill-opacity="1"><g transform="translate(293.601638, 245.137001)"><g><path d="M 5.109375 0 C 4.628906 0 4.238281 -0.164062 3.9375 -0.5 C 3.644531 -0.84375 3.550781 -1.257812 3.65625 -1.75 L 15.78125 -100.515625 C 15.875 -101.003906 16.09375 -101.421875 16.4375 -101.765625 C 16.78125 -102.109375 17.191406 -102.28125 17.671875 -102.28125 L 34.1875 -102.28125 C 35.257812 -102.28125 35.796875 -101.691406 35.796875 -100.515625 L 23.671875 -1.75 C 23.578125 -1.257812 23.332031 -0.84375 22.9375 -0.5 C 22.550781 -0.164062 22.113281 0 21.625 0 Z M 5.109375 0 "/></g></g></g><g fill="#ffffff" fill-opacity="1"><g transform="translate(326.18202, 245.137001)"><g><path d="M 66.046875 -86.34375 C 65.941406 -85.863281 65.71875 -85.453125 65.375 -85.109375 C 65.039062 -84.765625 64.628906 -84.59375 64.140625 -84.59375 L 34.484375 -84.59375 C 33.992188 -84.59375 33.75 -84.347656 33.75 -83.859375 L 30.828125 -60.78125 C 30.828125 -60.289062 31.019531 -60.046875 31.40625 -60.046875 L 48.515625 -60.046875 C 48.992188 -60.046875 49.378906 -59.875 49.671875 -59.53125 C 49.960938 -59.195312 50.0625 -58.785156 49.96875 -58.296875 L 48.21875 -44.125 C 48.113281 -43.632812 47.890625 -43.21875 47.546875 -42.875 C 47.210938 -42.539062 46.800781 -42.375 46.3125 -42.375 L 29.375 -42.375 C 28.78125 -42.375 28.484375 -42.128906 28.484375 -41.640625 L 25.71875 -18.40625 C 25.519531 -17.914062 25.710938 -17.671875 26.296875 -17.671875 L 55.8125 -17.671875 C 56.300781 -17.671875 56.710938 -17.5 57.046875 -17.15625 C 57.390625 -16.820312 57.515625 -16.410156 57.421875 -15.921875 L 55.671875 -1.75 C 55.566406 -1.257812 55.34375 -0.84375 55 -0.5 C 54.664062 -0.164062 54.253906 0 53.765625 0 L 5.109375 0 C 4.628906 0 4.238281 -0.164062 3.9375 -0.5 C 3.644531 -0.84375 3.550781 -1.257812 3.65625 -1.75 L 15.78125 -100.515625 C 15.875 -101.003906 16.09375 -101.421875 16.4375 -101.765625 C 16.78125 -102.109375 17.191406 -102.28125 17.671875 -102.28125 L 66.328125 -102.28125 C 66.816406 -102.28125 67.207031 -102.109375 67.5 -101.765625 C 67.789062 -101.421875 67.890625 -101.003906 67.796875 -100.515625 Z M 66.046875 -86.34375 "/></g></g></g><g fill="#ffffff" fill-opacity="1"><g transform="translate(388.27467, 245.137001)"><g/></g></g><g fill="#d32f23" fill-opacity="0.4196"><g transform="translate(420.962746, 249.047606)"><g><path d="M 60.046875 -100.671875 C 60.628906 -101.742188 61.507812 -102.28125 62.6875 -102.28125 L 84.890625 -102.28125 C 85.472656 -102.28125 85.929688 -102.082031 86.265625 -101.6875 C 86.609375 -101.300781 86.734375 -100.765625 86.640625 -100.078125 L 74.65625 -2.1875 C 74.5625 -1.507812 74.296875 -0.972656 73.859375 -0.578125 C 73.421875 -0.191406 72.910156 0 72.328125 0 L 49.828125 0 C 49.242188 0 48.78125 -0.191406 48.4375 -0.578125 C 48.09375 -0.972656 47.96875 -1.507812 48.0625 -2.1875 L 55.375 -61.953125 C 55.46875 -62.335938 55.394531 -62.554688 55.15625 -62.609375 C 54.914062 -62.660156 54.695312 -62.539062 54.5 -62.25 L 44.5625 -47.921875 L 42.8125 -45.296875 L 42.65625 -45.296875 L 35.21875 -62.25 C 35.113281 -62.539062 34.960938 -62.660156 34.765625 -62.609375 C 34.578125 -62.554688 34.429688 -62.335938 34.328125 -61.953125 L 27.03125 -2.1875 C 26.9375 -1.507812 26.691406 -0.972656 26.296875 -0.578125 C 25.910156 -0.191406 25.375 0 24.6875 0 L 2.34375 0 C 1.65625 0 1.140625 -0.191406 0.796875 -0.578125 C 0.460938 -0.972656 0.34375 -1.507812 0.4375 -2.1875 L 12.421875 -100.078125 C 12.515625 -100.765625 12.78125 -101.300781 13.21875 -101.6875 C 13.65625 -102.082031 14.164062 -102.28125 14.75 -102.28125 L 36.96875 -102.28125 C 38.132812 -102.28125 38.910156 -101.742188 39.296875 -100.671875 L 47.046875 -81.671875 C 47.242188 -81.285156 47.535156 -81.285156 47.921875 -81.671875 Z M 60.046875 -100.671875 "/></g></g></g><g fill="#d32f23" fill-opacity="0.4196"><g transform="translate(501.171839, 249.047606)"><g><path d="M 31.265625 1.171875 C 22.597656 1.171875 15.78125 -1.1875 10.8125 -5.90625 C 5.84375 -10.632812 3.359375 -17.039062 3.359375 -25.125 C 3.359375 -26.101562 3.457031 -27.757812 3.65625 -30.09375 L 8.90625 -72.171875 C 10.082031 -81.722656 13.859375 -89.320312 20.234375 -94.96875 C 26.617188 -100.625 34.582031 -103.453125 44.125 -103.453125 C 52.695312 -103.453125 59.488281 -101.085938 64.5 -96.359375 C 69.519531 -91.628906 72.03125 -85.222656 72.03125 -77.140625 C 72.03125 -76.171875 71.929688 -74.515625 71.734375 -72.171875 L 66.625 -30.09375 C 65.457031 -20.550781 61.660156 -12.953125 55.234375 -7.296875 C 48.804688 -1.648438 40.816406 1.171875 31.265625 1.171875 Z M 34.1875 -22.359375 C 35.644531 -22.359375 36.882812 -22.941406 37.90625 -24.109375 C 38.9375 -25.273438 39.597656 -26.878906 39.890625 -28.921875 L 45.296875 -73.34375 C 45.492188 -75.394531 45.25 -77.003906 44.5625 -78.171875 C 43.882812 -79.335938 42.8125 -79.921875 41.34375 -79.921875 C 39.789062 -79.921875 38.5 -79.335938 37.46875 -78.171875 C 36.445312 -77.003906 35.84375 -75.394531 35.65625 -73.34375 L 30.25 -28.921875 C 30.144531 -28.535156 30.09375 -28.003906 30.09375 -27.328125 C 30.09375 -25.765625 30.457031 -24.546875 31.1875 -23.671875 C 31.925781 -22.796875 32.925781 -22.359375 34.1875 -22.359375 Z M 34.1875 -22.359375 "/></g></g></g><g fill="#d32f23" fill-opacity="0.4196"><g transform="translate(569.692904, 249.047606)"><g><path d="M 75.828125 -102.28125 C 76.410156 -102.28125 76.875 -102.082031 77.21875 -101.6875 C 77.5625 -101.300781 77.679688 -100.765625 77.578125 -100.078125 L 75.25 -80.9375 C 75.144531 -80.257812 74.898438 -79.722656 74.515625 -79.328125 C 74.128906 -78.941406 73.59375 -78.75 72.90625 -78.75 L 55.953125 -78.75 C 55.472656 -78.75 55.234375 -78.503906 55.234375 -78.015625 L 45.875 -2.1875 C 45.78125 -1.507812 45.535156 -0.972656 45.140625 -0.578125 C 44.753906 -0.191406 44.222656 0 43.546875 0 L 21.1875 0 C 20.5 0 19.984375 -0.191406 19.640625 -0.578125 C 19.304688 -0.972656 19.1875 -1.507812 19.28125 -2.1875 L 28.640625 -78.015625 C 28.640625 -78.503906 28.394531 -78.75 27.90625 -78.75 L 11.546875 -78.75 C 10.859375 -78.75 10.34375 -78.941406 10 -79.328125 C 9.664062 -79.722656 9.546875 -80.257812 9.640625 -80.9375 L 11.984375 -100.078125 C 12.078125 -100.765625 12.34375 -101.300781 12.78125 -101.6875 C 13.21875 -102.082031 13.78125 -102.28125 14.46875 -102.28125 Z M 75.828125 -102.28125 "/></g></g></g><g fill="#d32f23" fill-opacity="0.4196"><g transform="translate(640.405486, 249.047606)"><g><path d="M 31.265625 1.171875 C 22.597656 1.171875 15.78125 -1.1875 10.8125 -5.90625 C 5.84375 -10.632812 3.359375 -17.039062 3.359375 -25.125 C 3.359375 -26.101562 3.457031 -27.757812 3.65625 -30.09375 L 8.90625 -72.171875 C 10.082031 -81.722656 13.859375 -89.320312 20.234375 -94.96875 C 26.617188 -100.625 34.582031 -103.453125 44.125 -103.453125 C 52.695312 -103.453125 59.488281 -101.085938 64.5 -96.359375 C 69.519531 -91.628906 72.03125 -85.222656 72.03125 -77.140625 C 72.03125 -76.171875 71.929688 -74.515625 71.734375 -72.171875 L 66.625 -30.09375 C 65.457031 -20.550781 61.660156 -12.953125 55.234375 -7.296875 C 48.804688 -1.648438 40.816406 1.171875 31.265625 1.171875 Z M 34.1875 -22.359375 C 35.644531 -22.359375 36.882812 -22.941406 37.90625 -24.109375 C 38.9375 -25.273438 39.597656 -26.878906 39.890625 -28.921875 L 45.296875 -73.34375 C 45.492188 -75.394531 45.25 -77.003906 44.5625 -78.171875 C 43.882812 -79.335938 42.8125 -79.921875 41.34375 -79.921875 C 39.789062 -79.921875 38.5 -79.335938 37.46875 -78.171875 C 36.445312 -77.003906 35.84375 -75.394531 35.65625 -73.34375 L 30.25 -28.921875 C 30.144531 -28.535156 30.09375 -28.003906 30.09375 -27.328125 C 30.09375 -25.765625 30.457031 -24.546875 31.1875 -23.671875 C 31.925781 -22.796875 32.925781 -22.359375 34.1875 -22.359375 Z M 34.1875 -22.359375 "/></g></g></g><g fill="#ea5455" fill-opacity="1"><g transform="translate(416.619579, 245.137001)"><g><path d="M 60.046875 -100.671875 C 60.628906 -101.742188 61.507812 -102.28125 62.6875 -102.28125 L 84.890625 -102.28125 C 85.472656 -102.28125 85.929688 -102.082031 86.265625 -101.6875 C 86.609375 -101.300781 86.734375 -100.765625 86.640625 -100.078125 L 74.65625 -2.1875 C 74.5625 -1.507812 74.296875 -0.972656 73.859375 -0.578125 C 73.421875 -0.191406 72.910156 0 72.328125 0 L 49.828125 0 C 49.242188 0 48.78125 -0.191406 48.4375 -0.578125 C 48.09375 -0.972656 47.96875 -1.507812 48.0625 -2.1875 L 55.375 -61.953125 C 55.46875 -62.335938 55.394531 -62.554688 55.15625 -62.609375 C 54.914062 -62.660156 54.695312 -62.539062 54.5 -62.25 L 44.5625 -47.921875 L 42.8125 -45.296875 L 42.65625 -45.296875 L 35.21875 -62.25 C 35.113281 -62.539062 34.960938 -62.660156 34.765625 -62.609375 C 34.578125 -62.554688 34.429688 -62.335938 34.328125 -61.953125 L 27.03125 -2.1875 C 26.9375 -1.507812 26.691406 -0.972656 26.296875 -0.578125 C 25.910156 -0.191406 25.375 0 24.6875 0 L 2.34375 0 C 1.65625 0 1.140625 -0.191406 0.796875 -0.578125 C 0.460938 -0.972656 0.34375 -1.507812 0.4375 -2.1875 L 12.421875 -100.078125 C 12.515625 -100.765625 12.78125 -101.300781 13.21875 -101.6875 C 13.65625 -102.082031 14.164062 -102.28125 14.75 -102.28125 L 36.96875 -102.28125 C 38.132812 -102.28125 38.910156 -101.742188 39.296875 -100.671875 L 47.046875 -81.671875 C 47.242188 -81.285156 47.535156 -81.285156 47.921875 -81.671875 Z M 60.046875 -100.671875 "/></g></g></g><g fill="#ea5455" fill-opacity="1"><g transform="translate(496.828672, 245.137001)"><g><path d="M 31.265625 1.171875 C 22.597656 1.171875 15.78125 -1.1875 10.8125 -5.90625 C 5.84375 -10.632812 3.359375 -17.039062 3.359375 -25.125 C 3.359375 -26.101562 3.457031 -27.757812 3.65625 -30.09375 L 8.90625 -72.171875 C 10.082031 -81.722656 13.859375 -89.320312 20.234375 -94.96875 C 26.617188 -100.625 34.582031 -103.453125 44.125 -103.453125 C 52.695312 -103.453125 59.488281 -101.085938 64.5 -96.359375 C 69.519531 -91.628906 72.03125 -85.222656 72.03125 -77.140625 C 72.03125 -76.171875 71.929688 -74.515625 71.734375 -72.171875 L 66.625 -30.09375 C 65.457031 -20.550781 61.660156 -12.953125 55.234375 -7.296875 C 48.804688 -1.648438 40.816406 1.171875 31.265625 1.171875 Z M 34.1875 -22.359375 C 35.644531 -22.359375 36.882812 -22.941406 37.90625 -24.109375 C 38.9375 -25.273438 39.597656 -26.878906 39.890625 -28.921875 L 45.296875 -73.34375 C 45.492188 -75.394531 45.25 -77.003906 44.5625 -78.171875 C 43.882812 -79.335938 42.8125 -79.921875 41.34375 -79.921875 C 39.789062 -79.921875 38.5 -79.335938 37.46875 -78.171875 C 36.445312 -77.003906 35.84375 -75.394531 35.65625 -73.34375 L 30.25 -28.921875 C 30.144531 -28.535156 30.09375 -28.003906 30.09375 -27.328125 C 30.09375 -25.765625 30.457031 -24.546875 31.1875 -23.671875 C 31.925781 -22.796875 32.925781 -22.359375 34.1875 -22.359375 Z M 34.1875 -22.359375 "/></g></g></g><g fill="#ea5455" fill-opacity="1"><g transform="translate(565.349737, 245.137001)"><g><path d="M 75.828125 -102.28125 C 76.410156 -102.28125 76.875 -102.082031 77.21875 -101.6875 C 77.5625 -101.300781 77.679688 -100.765625 77.578125 -100.078125 L 75.25 -80.9375 C 75.144531 -80.257812 74.898438 -79.722656 74.515625 -79.328125 C 74.128906 -78.941406 73.59375 -78.75 72.90625 -78.75 L 55.953125 -78.75 C 55.472656 -78.75 55.234375 -78.503906 55.234375 -78.015625 L 45.875 -2.1875 C 45.78125 -1.507812 45.535156 -0.972656 45.140625 -0.578125 C 44.753906 -0.191406 44.222656 0 43.546875 0 L 21.1875 0 C 20.5 0 19.984375 -0.191406 19.640625 -0.578125 C 19.304688 -0.972656 19.1875 -1.507812 19.28125 -2.1875 L 28.640625 -78.015625 C 28.640625 -78.503906 28.394531 -78.75 27.90625 -78.75 L 11.546875 -78.75 C 10.859375 -78.75 10.34375 -78.941406 10 -79.328125 C 9.664062 -79.722656 9.546875 -80.257812 9.640625 -80.9375 L 11.984375 -100.078125 C 12.078125 -100.765625 12.34375 -101.300781 12.78125 -101.6875 C 13.21875 -102.082031 13.78125 -102.28125 14.46875 -102.28125 Z M 75.828125 -102.28125 "/></g></g></g><g fill="#ea5455" fill-opacity="1"><g transform="translate(636.062319, 245.137001)"><g><path d="M 31.265625 1.171875 C 22.597656 1.171875 15.78125 -1.1875 10.8125 -5.90625 C 5.84375 -10.632812 3.359375 -17.039062 3.359375 -25.125 C 3.359375 -26.101562 3.457031 -27.757812 3.65625 -30.09375 L 8.90625 -72.171875 C 10.082031 -81.722656 13.859375 -89.320312 20.234375 -94.96875 C 26.617188 -100.625 34.582031 -103.453125 44.125 -103.453125 C 52.695312 -103.453125 59.488281 -101.085938 64.5 -96.359375 C 69.519531 -91.628906 72.03125 -85.222656 72.03125 -77.140625 C 72.03125 -76.171875 71.929688 -74.515625 71.734375 -72.171875 L 66.625 -30.09375 C 65.457031 -20.550781 61.660156 -12.953125 55.234375 -7.296875 C 48.804688 -1.648438 40.816406 1.171875 31.265625 1.171875 Z M 34.1875 -22.359375 C 35.644531 -22.359375 36.882812 -22.941406 37.90625 -24.109375 C 38.9375 -25.273438 39.597656 -26.878906 39.890625 -28.921875 L 45.296875 -73.34375 C 45.492188 -75.394531 45.25 -77.003906 44.5625 -78.171875 C 43.882812 -79.335938 42.8125 -79.921875 41.34375 -79.921875 C 39.789062 -79.921875 38.5 -79.335938 37.46875 -78.171875 C 36.445312 -77.003906 35.84375 -75.394531 35.65625 -73.34375 L 30.25 -28.921875 C 30.144531 -28.535156 30.09375 -28.003906 30.09375 -27.328125 C 30.09375 -25.765625 30.457031 -24.546875 31.1875 -23.671875 C 31.925781 -22.796875 32.925781 -22.359375 34.1875 -22.359375 Z M 34.1875 -22.359375 "/></g></g></g></svg>